<svg width="1440" height="900" viewBox="0 0 1440 900" xmlns="http://www.w3.org/2000/svg">
  <defs>
    <linearGradient id="bg" x1="0" y1="0" x2="1" y2="1">
      <stop offset="0%" stop-color="#f8fbff"/>
      <stop offset="100%" stop-color="#eef4f9"/>
    </linearGradient>
  </defs>
  <rect width="1440" height="900" fill="url(#bg)"/>
  <rect x="0" y="0" width="1440" height="76" fill="#0f2a43"/>
  <text x="36" y="48" fill="#ffffff" font-size="26" font-family="Segoe UI, Arial">Green Lab • Обзор дашборда</text>
  <text x="1120" y="48" fill="#d3e3f2" font-size="16" font-family="Segoe UI, Arial">Филиал: Canggu • Смена: Утро</text>

  <rect x="32" y="104" width="320" height="120" rx="14" fill="#ffffff" stroke="#d9e3ee"/>
  <text x="54" y="142" fill="#1d2a36" font-size="18" font-family="Segoe UI, Arial">Заказов сегодня</text>
  <text x="54" y="192" fill="#0f2a43" font-size="42" font-weight="700" font-family="Segoe UI, Arial">128</text>

  <rect x="376" y="104" width="320" height="120" rx="14" fill="#ffffff" stroke="#d9e3ee"/>
  <text x="398" y="142" fill="#1d2a36" font-size="18" font-family="Segoe UI, Arial">Среднее время цикла</text>
  <text x="398" y="192" fill="#0f2a43" font-size="42" font-weight="700" font-family="Segoe UI, Arial">4ч 20м</text>

  <rect x="720" y="104" width="320" height="120" rx="14" fill="#ffffff" stroke="#d9e3ee"/>
  <text x="742" y="142" fill="#1d2a36" font-size="18" font-family="Segoe UI, Arial">Готово к выдаче</text>
  <text x="742" y="192" fill="#0f2a43" font-size="42" font-weight="700" font-family="Segoe UI, Arial">23</text>

  <rect x="1064" y="104" width="344" height="120" rx="14" fill="#ffffff" stroke="#d9e3ee"/>
  <text x="1086" y="142" fill="#1d2a36" font-size="18" font-family="Segoe UI, Arial">Оффлайн/Синхронизация</text>
  <text x="1086" y="192" fill="#0c7a43" font-size="30" font-weight="700" font-family="Segoe UI, Arial">Онлайн • Очередь: 0</text>

  <text x="36" y="282" fill="#15202b" font-size="24" font-family="Segoe UI, Arial">Очереди по этапам</text>

  <rect x="32" y="300" width="332" height="540" rx="14" fill="#ffffff" stroke="#d9e3ee"/>
  <text x="54" y="336" fill="#1d2a36" font-size="20" font-weight="700" font-family="Segoe UI, Arial">Не отсортировано (12)</text>
  <rect x="50" y="358" width="296" height="88" rx="10" fill="#f6f9fd" stroke="#d9e3ee"/>
  <text x="64" y="392" fill="#1d2a36" font-size="16" font-family="Segoe UI, Arial">#1001 • Maria S.</text>
  <text x="64" y="420" fill="#556371" font-size="14" font-family="Segoe UI, Arial">12.4 кг • Vanish</text>
  <rect x="50" y="458" width="296" height="88" rx="10" fill="#f6f9fd" stroke="#d9e3ee"/>
  <text x="64" y="492" fill="#1d2a36" font-size="16" font-family="Segoe UI, Arial">#1002 • John T.</text>
  <text x="64" y="520" fill="#556371" font-size="14" font-family="Segoe UI, Arial">7.1 кг • Eco</text>

  <rect x="380" y="300" width="332" height="540" rx="14" fill="#ffffff" stroke="#d9e3ee"/>
  <text x="402" y="336" fill="#1d2a36" font-size="20" font-weight="700" font-family="Segoe UI, Arial">Washing (18)</text>
  <rect x="398" y="358" width="296" height="88" rx="10" fill="#ecf6ff" stroke="#cfe4f8"/>
  <text x="412" y="392" fill="#1d2a36" font-size="16" font-family="Segoe UI, Arial">B1001-1 • White</text>
  <text x="412" y="420" fill="#556371" font-size="14" font-family="Segoe UI, Arial">Машина #3 • 11:40</text>
  <rect x="398" y="458" width="296" height="88" rx="10" fill="#ecf6ff" stroke="#cfe4f8"/>
  <text x="412" y="492" fill="#1d2a36" font-size="16" font-family="Segoe UI, Arial">B1003-2 • Color</text>
  <text x="412" y="520" fill="#556371" font-size="14" font-family="Segoe UI, Arial">Машина #5 • 11:55</text>

  <rect x="728" y="300" width="332" height="540" rx="14" fill="#ffffff" stroke="#d9e3ee"/>
  <text x="750" y="336" fill="#1d2a36" font-size="20" font-weight="700" font-family="Segoe UI, Arial">QC / Ironing (9)</text>
  <rect x="746" y="358" width="296" height="88" rx="10" fill="#fff8e8" stroke="#f0e2bd"/>
  <text x="760" y="392" fill="#1d2a36" font-size="16" font-family="Segoe UI, Arial">B1001-2 • Dark</text>
  <text x="760" y="420" fill="#556371" font-size="14" font-family="Segoe UI, Arial">QC стол #2 • 12:05</text>
  <rect x="746" y="458" width="296" height="88" rx="10" fill="#fff8e8" stroke="#f0e2bd"/>
  <text x="760" y="492" fill="#1d2a36" font-size="16" font-family="Segoe UI, Arial">B1004-1 • Hand Wash</text>
  <text x="760" y="520" fill="#556371" font-size="14" font-family="Segoe UI, Arial">Ironing • 12:10</text>

  <rect x="1076" y="300" width="332" height="540" rx="14" fill="#ffffff" stroke="#d9e3ee"/>
  <text x="1098" y="336" fill="#1d2a36" font-size="20" font-weight="700" font-family="Segoe UI, Arial">Готово к выдаче (23)</text>
  <rect x="1094" y="358" width="296" height="88" rx="10" fill="#ecfff3" stroke="#c8ebd6"/>
  <text x="1108" y="392" fill="#1d2a36" font-size="16" font-family="Segoe UI, Arial">#998 • Ketut A.</text>
  <text x="1108" y="420" fill="#556371" font-size="14" font-family="Segoe UI, Arial">Упаковано • 10:30</text>
  <rect x="1094" y="458" width="296" height="88" rx="10" fill="#ecfff3" stroke="#c8ebd6"/>
  <text x="1108" y="492" fill="#1d2a36" font-size="16" font-family="Segoe UI, Arial">#999 • Olga R.</text>
  <text x="1108" y="520" fill="#556371" font-size="14" font-family="Segoe UI, Arial">Ожидает клиента</text>
</svg>
