<svg width="1440" height="900" viewBox="0 0 1440 900" xmlns="http://www.w3.org/2000/svg">
  <defs>
    <linearGradient id="bg3" x1="0" y1="0" x2="1" y2="1">
      <stop offset="0%" stop-color="#f4f8ff"/>
      <stop offset="100%" stop-color="#ebf1fb"/>
    </linearGradient>
  </defs>
  <rect width="1440" height="900" fill="url(#bg3)"/>
  <rect x="0" y="0" width="1440" height="76" fill="#193a67"/>
  <text x="36" y="48" fill="#ffffff" font-size="26" font-family="Segoe UI, Arial">Станция сканирования • Washing / QC</text>

  <rect x="32" y="104" width="540" height="764" rx="14" fill="#ffffff" stroke="#d2deef"/>
  <text x="58" y="144" fill="#15263a" font-size="22" font-weight="700" font-family="Segoe UI, Arial">Режим станции</text>
  <rect x="58" y="166" width="230" height="52" rx="10" fill="#dfefff" stroke="#b9d3f0"/>
  <text x="88" y="199" fill="#1d4f8e" font-size="20" font-weight="700" font-family="Segoe UI, Arial">Washing</text>
  <rect x="304" y="166" width="230" height="52" rx="10" fill="#f3f7fb" stroke="#d2deef"/>
  <text x="394" y="199" fill="#4b5b6a" font-size="20" font-family="Segoe UI, Arial">QC</text>

  <rect x="58" y="242" width="476" height="250" rx="12" fill="#f7fbff" stroke="#d2deef"/>
  <text x="86" y="284" fill="#15263a" font-size="18" font-family="Segoe UI, Arial">Поле сканирования QR</text>
  <rect x="86" y="306" width="420" height="82" rx="10" fill="#ffffff" stroke="#b9d3f0"/>
  <text x="104" y="356" fill="#1d4f8e" font-size="24" font-family="Consolas, monospace">B1001-2-CANGGU-9A3F</text>
  <rect x="86" y="402" width="240" height="62" rx="10" fill="#193a67"/>
  <text x="128" y="441" fill="#ffffff" font-size="22" font-family="Segoe UI, Arial">Сканировать</text>
  <rect x="342" y="402" width="164" height="62" rx="10" fill="#e7eef7" stroke="#c7d8ea"/>
  <text x="390" y="441" fill="#2a3a4d" font-size="20" font-family="Segoe UI, Arial">Сброс</text>

  <rect x="58" y="518" width="476" height="156" rx="12" fill="#eaf8f0" stroke="#c6e6d2"/>
  <text x="84" y="556" fill="#145936" font-size="20" font-weight="700" font-family="Segoe UI, Arial">Статус обновлён успешно</text>
  <text x="84" y="590" fill="#1b3b2b" font-size="16" font-family="Segoe UI, Arial">Корзина: B1001-2 (Color)</text>
  <text x="84" y="618" fill="#1b3b2b" font-size="16" font-family="Segoe UI, Arial">Новый этап: Washing • Время: 12:14</text>
  <text x="84" y="646" fill="#1b3b2b" font-size="16" font-family="Segoe UI, Arial">Синхронизация с CleanCloud: в очереди 0</text>

  <rect x="58" y="698" width="476" height="142" rx="12" fill="#fff5f2" stroke="#efcfc5"/>
  <text x="84" y="734" fill="#9b3d22" font-size="18" font-weight="700" font-family="Segoe UI, Arial">Защита от ошибки</text>
  <text x="84" y="764" fill="#5e3528" font-size="15" font-family="Segoe UI, Arial">Если скан не соответствует этапу, система отклоняет переход.</text>
  <text x="84" y="790" fill="#5e3528" font-size="15" font-family="Segoe UI, Arial">Ручное изменение статуса через UI отключено.</text>

  <rect x="596" y="104" width="812" height="764" rx="14" fill="#ffffff" stroke="#d2deef"/>
  <text x="622" y="144" fill="#15263a" font-size="22" font-weight="700" font-family="Segoe UI, Arial">Лента последних сканов</text>

  <rect x="622" y="168" width="760" height="86" rx="10" fill="#f4f9ff" stroke="#d2deef"/>
  <text x="646" y="202" fill="#15263a" font-size="17" font-family="Segoe UI, Arial">12:14 • B1001-2 • Color</text>
  <text x="646" y="228" fill="#4b5b6a" font-size="15" font-family="Segoe UI, Arial">Sorting -> Washing • оператор: Kadek</text>
  <rect x="1220" y="186" width="140" height="48" rx="8" fill="#eaf8f0" stroke="#c6e6d2"/>
  <text x="1255" y="216" fill="#145936" font-size="16" font-family="Segoe UI, Arial">OK</text>

  <rect x="622" y="268" width="760" height="86" rx="10" fill="#f4f9ff" stroke="#d2deef"/>
  <text x="646" y="302" fill="#15263a" font-size="17" font-family="Segoe UI, Arial">12:12 • B1001-1 • White</text>
  <text x="646" y="328" fill="#4b5b6a" font-size="15" font-family="Segoe UI, Arial">Washing -> Drying • оператор: Putu</text>
  <rect x="1220" y="286" width="140" height="48" rx="8" fill="#eaf8f0" stroke="#c6e6d2"/>
  <text x="1255" y="316" fill="#145936" font-size="16" font-family="Segoe UI, Arial">OK</text>

  <rect x="622" y="368" width="760" height="86" rx="10" fill="#fff5f2" stroke="#efcfc5"/>
  <text x="646" y="402" fill="#15263a" font-size="17" font-family="Segoe UI, Arial">12:11 • B0955-3 • Hand Wash</text>
  <text x="646" y="428" fill="#4b5b6a" font-size="15" font-family="Segoe UI, Arial">Попытка перехода Pickup -> QC (запрещено)</text>
  <rect x="1220" y="386" width="140" height="48" rx="8" fill="#ffe5de" stroke="#efbfb1"/>
  <text x="1248" y="416" fill="#9b3d22" font-size="16" font-family="Segoe UI, Arial">ОТКЛОНЕНО</text>

  <text x="622" y="504" fill="#15263a" font-size="22" font-weight="700" font-family="Segoe UI, Arial">Список корзин на станции Washing</text>

  <rect x="622" y="528" width="370" height="302" rx="12" fill="#fbfdff" stroke="#d2deef"/>
  <text x="646" y="564" fill="#15263a" font-size="17" font-family="Segoe UI, Arial">B1001-1 • White</text>
  <text x="646" y="590" fill="#4b5b6a" font-size="15" font-family="Segoe UI, Arial">Машина #3 • старт 11:40</text>
  <text x="646" y="628" fill="#15263a" font-size="17" font-family="Segoe UI, Arial">B1001-2 • Color</text>
  <text x="646" y="654" fill="#4b5b6a" font-size="15" font-family="Segoe UI, Arial">Машина #5 • старт 12:14</text>
  <text x="646" y="692" fill="#15263a" font-size="17" font-family="Segoe UI, Arial">B1003-1 • Dark</text>
  <text x="646" y="718" fill="#4b5b6a" font-size="15" font-family="Segoe UI, Arial">Ожидает загрузки</text>

  <rect x="1012" y="528" width="370" height="302" rx="12" fill="#fbfdff" stroke="#d2deef"/>
  <text x="1036" y="564" fill="#15263a" font-size="17" font-family="Segoe UI, Arial">Панель оператора</text>
  <text x="1036" y="600" fill="#4b5b6a" font-size="15" font-family="Segoe UI, Arial">Сканов за час: 47</text>
  <text x="1036" y="628" fill="#4b5b6a" font-size="15" font-family="Segoe UI, Arial">Ошибок: 2</text>
  <text x="1036" y="656" fill="#4b5b6a" font-size="15" font-family="Segoe UI, Arial">Среднее время между сканами: 1м 35с</text>
  <rect x="1036" y="694" width="318" height="56" rx="10" fill="#193a67"/>
  <text x="1112" y="728" fill="#ffffff" font-size="20" font-family="Segoe UI, Arial">Открыть журнал</text>
</svg>
