<svg width="1440" height="900" viewBox="0 0 1440 900" xmlns="http://www.w3.org/2000/svg">
  <defs>
    <linearGradient id="bg4" x1="0" y1="0" x2="1" y2="1">
      <stop offset="0%" stop-color="#f9fff7"/>
      <stop offset="100%" stop-color="#eff8ec"/>
    </linearGradient>
  </defs>
  <rect width="1440" height="900" fill="url(#bg4)"/>
  <rect x="0" y="0" width="1440" height="76" fill="#1f5a33"/>
  <text x="36" y="48" fill="#ffffff" font-size="26" font-family="Segoe UI, Arial">Pickup • Выдача заказа клиенту</text>

  <rect x="32" y="104" width="500" height="764" rx="14" fill="#ffffff" stroke="#d4e7d7"/>
  <text x="58" y="144" fill="#193024" font-size="22" font-weight="700" font-family="Segoe UI, Arial">Поиск или скан заказа</text>
  <rect x="58" y="168" width="448" height="70" rx="10" fill="#f5fbf6" stroke="#d4e7d7"/>
  <text x="78" y="212" fill="#1f5a33" font-size="24" font-family="Consolas, monospace">#1001 / B1001-2-CANGGU-9A3F</text>

  <rect x="58" y="256" width="448" height="276" rx="12" fill="#fbfffb" stroke="#d4e7d7"/>
  <text x="82" y="294" fill="#193024" font-size="20" font-weight="700" font-family="Segoe UI, Arial">Найден заказ #1001</text>
  <text x="82" y="328" fill="#465b4f" font-size="16" font-family="Segoe UI, Arial">Клиент: Maria S.</text>
  <text x="82" y="356" fill="#465b4f" font-size="16" font-family="Segoe UI, Arial">Телефон: +62 *** *** 991</text>
  <text x="82" y="384" fill="#465b4f" font-size="16" font-family="Segoe UI, Arial">Оплата: Paid</text>
  <text x="82" y="412" fill="#465b4f" font-size="16" font-family="Segoe UI, Arial">Корзины: 3/3 готовы к выдаче</text>
  <text x="82" y="440" fill="#465b4f" font-size="16" font-family="Segoe UI, Arial">Статус CleanCloud: Awaiting Pickup</text>

  <rect x="82" y="462" width="190" height="48" rx="8" fill="#e8f8eb" stroke="#c0e4c7"/>
  <text x="114" y="492" fill="#195d32" font-size="16" font-family="Segoe UI, Arial">Готов к выдаче</text>

  <rect x="58" y="556" width="448" height="74" rx="10" fill="#1f5a33"/>
  <text x="130" y="602" fill="#ffffff" font-size="28" font-weight="700" font-family="Segoe UI, Arial">Выдано клиенту</text>

  <rect x="58" y="648" width="448" height="192" rx="12" fill="#f4f8ff" stroke="#d0ddf0"/>
  <text x="82" y="686" fill="#193024" font-size="18" font-weight="700" font-family="Segoe UI, Arial">После нажатия:</text>
  <text x="82" y="716" fill="#465b4f" font-size="16" font-family="Segoe UI, Arial">1) Локально: заказ помечается как Completed</text>
  <text x="82" y="742" fill="#465b4f" font-size="16" font-family="Segoe UI, Arial">2) API: обновляется статус в CleanCloud</text>
  <text x="82" y="768" fill="#465b4f" font-size="16" font-family="Segoe UI, Arial">3) В логе фиксируется время и оператор</text>

  <rect x="556" y="104" width="852" height="764" rx="14" fill="#ffffff" stroke="#d4e7d7"/>
  <text x="582" y="144" fill="#193024" font-size="22" font-weight="700" font-family="Segoe UI, Arial">Список заказов "Готово к выдаче"</text>

  <rect x="582" y="170" width="800" height="86" rx="10" fill="#f7fcf8" stroke="#d4e7d7"/>
  <text x="606" y="204" fill="#193024" font-size="17" font-family="Segoe UI, Arial">#998 • Ketut A. • 2 корзины</text>
  <text x="606" y="230" fill="#4f6358" font-size="15" font-family="Segoe UI, Arial">Готово с 10:30 • Ожидает клиента 1ч 44м</text>
  <rect x="1220" y="188" width="140" height="48" rx="8" fill="#eef5ff" stroke="#c7d8ea"/>
  <text x="1254" y="218" fill="#1f5a33" font-size="16" font-family="Segoe UI, Arial">Открыть</text>

  <rect x="582" y="268" width="800" height="86" rx="10" fill="#f7fcf8" stroke="#d4e7d7"/>
  <text x="606" y="302" fill="#193024" font-size="17" font-family="Segoe UI, Arial">#999 • Olga R. • 1 корзина</text>
  <text x="606" y="328" fill="#4f6358" font-size="15" font-family="Segoe UI, Arial">Готово с 11:15 • Ожидает клиента 59м</text>
  <rect x="1220" y="286" width="140" height="48" rx="8" fill="#eef5ff" stroke="#c7d8ea"/>
  <text x="1254" y="316" fill="#1f5a33" font-size="16" font-family="Segoe UI, Arial">Открыть</text>

  <rect x="582" y="366" width="800" height="86" rx="10" fill="#f7fcf8" stroke="#d4e7d7"/>
  <text x="606" y="400" fill="#193024" font-size="17" font-family="Segoe UI, Arial">#1001 • Maria S. • 3 корзины</text>
  <text x="606" y="426" fill="#4f6358" font-size="15" font-family="Segoe UI, Arial">Готово с 12:09 • Приоритет: высокий</text>
  <rect x="1220" y="384" width="140" height="48" rx="8" fill="#e8f8eb" stroke="#c0e4c7"/>
  <text x="1248" y="414" fill="#1f5a33" font-size="16" font-family="Segoe UI, Arial">Выдача</text>

  <rect x="582" y="488" width="800" height="352" rx="12" fill="#fbfffb" stroke="#d4e7d7"/>
  <text x="606" y="526" fill="#193024" font-size="20" font-weight="700" font-family="Segoe UI, Arial">Журнал выдачи (последние действия)</text>
  <text x="606" y="560" fill="#4f6358" font-size="16" font-family="Segoe UI, Arial">12:13 • #997 • Completed • оператор: Ayu</text>
  <text x="606" y="590" fill="#4f6358" font-size="16" font-family="Segoe UI, Arial">12:10 • #996 • Completed • оператор: Ayu</text>
  <text x="606" y="620" fill="#4f6358" font-size="16" font-family="Segoe UI, Arial">11:58 • #992 • Completed • оператор: Wayan</text>
  <text x="606" y="650" fill="#4f6358" font-size="16" font-family="Segoe UI, Arial">11:52 • #990 • Completed • оператор: Wayan</text>

  <rect x="606" y="692" width="330" height="62" rx="10" fill="#f4f8ff" stroke="#d0ddf0"/>
  <text x="632" y="730" fill="#32495f" font-size="18" font-family="Segoe UI, Arial">Уведомление клиенту: SMS отправлено</text>
</svg>
