<svg width="1440" height="900" viewBox="0 0 1440 900" xmlns="http://www.w3.org/2000/svg">
  <defs>
    <linearGradient id="bgb" x1="0" y1="0" x2="1" y2="1">
      <stop offset="0%" stop-color="#f6fff8"/>
      <stop offset="100%" stop-color="#ecf8ef"/>
    </linearGradient>
  </defs>
  <rect width="1440" height="900" fill="url(#bgb)"/>
  <rect x="0" y="0" width="1440" height="76" fill="#235239"/>
  <text x="36" y="48" fill="#ffffff" font-size="26" font-family="Segoe UI, Arial">Выбор рабочего режима</text>

  <text x="36" y="128" fill="#1d3328" font-size="30" font-weight="700" font-family="Segoe UI, Arial">Куда перейти после входа</text>
  <text x="36" y="164" fill="#4a6256" font-size="17" font-family="Segoe UI, Arial">Пользователь видит только разрешенные для его роли станции</text>

  <rect x="36" y="200" width="320" height="230" rx="14" fill="#ffffff" stroke="#d5e7d8"/>
  <text x="62" y="248" fill="#1d3328" font-size="24" font-weight="700" font-family="Segoe UI, Arial">Sorting</text>
  <text x="62" y="284" fill="#4a6256" font-size="16" font-family="Segoe UI, Arial">Создание корзин и печать QR</text>
  <text x="62" y="312" fill="#4a6256" font-size="16" font-family="Segoe UI, Arial">Роль: Сортировщик</text>
  <rect x="62" y="348" width="268" height="54" rx="10" fill="#235239"/>
  <text x="145" y="382" fill="#ffffff" font-size="20" font-family="Segoe UI, Arial">Открыть</text>

  <rect x="376" y="200" width="320" height="230" rx="14" fill="#ffffff" stroke="#d5e7d8"/>
  <text x="402" y="248" fill="#1d3328" font-size="24" font-weight="700" font-family="Segoe UI, Arial">Washing / QC</text>
  <text x="402" y="284" fill="#4a6256" font-size="16" font-family="Segoe UI, Arial">Сканирование корзин</text>
  <text x="402" y="312" fill="#4a6256" font-size="16" font-family="Segoe UI, Arial">Роль: Производство</text>
  <rect x="402" y="348" width="268" height="54" rx="10" fill="#235239"/>
  <text x="485" y="382" fill="#ffffff" font-size="20" font-family="Segoe UI, Arial">Открыть</text>

  <rect x="716" y="200" width="320" height="230" rx="14" fill="#ffffff" stroke="#d5e7d8"/>
  <text x="742" y="248" fill="#1d3328" font-size="24" font-weight="700" font-family="Segoe UI, Arial">Pickup</text>
  <text x="742" y="284" fill="#4a6256" font-size="16" font-family="Segoe UI, Arial">Выдача заказов</text>
  <text x="742" y="312" fill="#4a6256" font-size="16" font-family="Segoe UI, Arial">Роль: Выдача</text>
  <rect x="742" y="348" width="268" height="54" rx="10" fill="#235239"/>
  <text x="825" y="382" fill="#ffffff" font-size="20" font-family="Segoe UI, Arial">Открыть</text>

  <rect x="1056" y="200" width="348" height="230" rx="14" fill="#ffffff" stroke="#d5e7d8"/>
  <text x="1082" y="248" fill="#1d3328" font-size="24" font-weight="700" font-family="Segoe UI, Arial">Overview / Детали</text>
  <text x="1082" y="284" fill="#4a6256" font-size="16" font-family="Segoe UI, Arial">Мониторинг и аудит</text>
  <text x="1082" y="312" fill="#4a6256" font-size="16" font-family="Segoe UI, Arial">Роль: Менеджер</text>
  <rect x="1082" y="348" width="296" height="54" rx="10" fill="#235239"/>
  <text x="1174" y="382" fill="#ffffff" font-size="20" font-family="Segoe UI, Arial">Открыть</text>

  <rect x="36" y="466" width="1368" height="390" rx="14" fill="#ffffff" stroke="#d5e7d8"/>
  <text x="62" y="510" fill="#1d3328" font-size="24" font-weight="700" font-family="Segoe UI, Arial">Матрица ролей (MVP)</text>
  <text x="62" y="548" fill="#4a6256" font-size="17" font-family="Segoe UI, Arial">Сортировщик: Sorting</text>
  <text x="62" y="576" fill="#4a6256" font-size="17" font-family="Segoe UI, Arial">Производство: Washing/QC</text>
  <text x="62" y="604" fill="#4a6256" font-size="17" font-family="Segoe UI, Arial">Выдача: Pickup</text>
  <text x="62" y="632" fill="#4a6256" font-size="17" font-family="Segoe UI, Arial">Менеджер: Обзор + Детали заказа (без изменения этапов)</text>
  <text x="62" y="670" fill="#1d3328" font-size="17" font-family="Segoe UI, Arial">Если роль не имеет доступа к станции, показывается экран "Нет доступа".</text>
  <rect x="62" y="706" width="370" height="58" rx="10" fill="#f7f2f1" stroke="#ebd1cc"/>
  <text x="84" y="742" fill="#7f3d27" font-size="18" font-family="Segoe UI, Arial">Пример: sorting_user -> pickup = запрещено</text>
</svg>
