<svg width="1440" height="900" viewBox="0 0 1440 900" xmlns="http://www.w3.org/2000/svg">
  <defs>
    <linearGradient id="bg5" x1="0" y1="0" x2="1" y2="1">
      <stop offset="0%" stop-color="#fffaf4"/>
      <stop offset="100%" stop-color="#f8f1e7"/>
    </linearGradient>
  </defs>
  <rect width="1440" height="900" fill="url(#bg5)"/>
  <rect x="0" y="0" width="1440" height="76" fill="#5a3a1f"/>
  <text x="36" y="48" fill="#ffffff" font-size="26" font-family="Segoe UI, Arial">Детали заказа #1001 • Трассировка корзин</text>

  <rect x="32" y="104" width="420" height="764" rx="14" fill="#ffffff" stroke="#e8d9c6"/>
  <text x="56" y="144" fill="#2f2217" font-size="22" font-weight="700" font-family="Segoe UI, Arial">Карточка заказа</text>
  <text x="56" y="178" fill="#5b4a3a" font-size="16" font-family="Segoe UI, Arial">Клиент: Maria S.</text>
  <text x="56" y="206" fill="#5b4a3a" font-size="16" font-family="Segoe UI, Arial">Номер: #1001</text>
  <text x="56" y="234" fill="#5b4a3a" font-size="16" font-family="Segoe UI, Arial">Вес: 12.4 кг</text>
  <text x="56" y="262" fill="#5b4a3a" font-size="16" font-family="Segoe UI, Arial">Тип: Vanish</text>
  <text x="56" y="290" fill="#5b4a3a" font-size="16" font-family="Segoe UI, Arial">Статус: Awaiting Pickup</text>

  <rect x="56" y="324" width="372" height="84" rx="10" fill="#fef8ef" stroke="#e8d9c6"/>
  <text x="74" y="358" fill="#2f2217" font-size="16" font-family="Segoe UI, Arial">CleanCloud Sync</text>
  <text x="74" y="386" fill="#5b4a3a" font-size="15" font-family="Segoe UI, Arial">Последний push: 12:12 • Очередь: 0</text>

  <text x="56" y="448" fill="#2f2217" font-size="18" font-weight="700" font-family="Segoe UI, Arial">Корзины заказа</text>

  <rect x="56" y="468" width="372" height="102" rx="10" fill="#fff" stroke="#e8d9c6"/>
  <text x="74" y="502" fill="#2f2217" font-size="17" font-family="Segoe UI, Arial">B1001-1 • White</text>
  <text x="74" y="530" fill="#5b4a3a" font-size="15" font-family="Segoe UI, Arial">Текущий этап: Drying</text>
  <rect x="282" y="486" width="126" height="40" rx="8" fill="#eef5ff" stroke="#c7d8ea"/>
  <text x="317" y="512" fill="#365070" font-size="14" font-family="Segoe UI, Arial">В работе</text>

  <rect x="56" y="582" width="372" height="102" rx="10" fill="#fff" stroke="#e8d9c6"/>
  <text x="74" y="616" fill="#2f2217" font-size="17" font-family="Segoe UI, Arial">B1001-2 • Color</text>
  <text x="74" y="644" fill="#5b4a3a" font-size="15" font-family="Segoe UI, Arial">Текущий этап: QC</text>
  <rect x="282" y="600" width="126" height="40" rx="8" fill="#fff3e2" stroke="#f1d0a7"/>
  <text x="324" y="626" fill="#7a4d18" font-size="14" font-family="Segoe UI, Arial">QC</text>

  <rect x="56" y="696" width="372" height="102" rx="10" fill="#fff" stroke="#e8d9c6"/>
  <text x="74" y="730" fill="#2f2217" font-size="17" font-family="Segoe UI, Arial">B1001-3 • Hand Wash</text>
  <text x="74" y="758" fill="#5b4a3a" font-size="15" font-family="Segoe UI, Arial">Текущий этап: Packaging</text>
  <rect x="282" y="714" width="126" height="40" rx="8" fill="#e8f8eb" stroke="#c0e4c7"/>
  <text x="309" y="740" fill="#1d5f36" font-size="14" font-family="Segoe UI, Arial">Готово</text>

  <rect x="476" y="104" width="932" height="360" rx="14" fill="#ffffff" stroke="#e8d9c6"/>
  <text x="502" y="144" fill="#2f2217" font-size="22" font-weight="700" font-family="Segoe UI, Arial">Таймлайн этапов (по корзине B1001-2)</text>

  <line x1="540" y1="230" x2="1310" y2="230" stroke="#d6c3ab" stroke-width="4"/>
  <circle cx="540" cy="230" r="16" fill="#1f5a33"/>
  <circle cx="760" cy="230" r="16" fill="#1f5a33"/>
  <circle cx="980" cy="230" r="16" fill="#1f5a33"/>
  <circle cx="1200" cy="230" r="16" fill="#c9b59a"/>

  <text x="502" y="278" fill="#2f2217" font-size="16" font-family="Segoe UI, Arial">Sorting</text>
  <text x="718" y="278" fill="#2f2217" font-size="16" font-family="Segoe UI, Arial">Washing</text>
  <text x="948" y="278" fill="#2f2217" font-size="16" font-family="Segoe UI, Arial">QC</text>
  <text x="1166" y="278" fill="#2f2217" font-size="16" font-family="Segoe UI, Arial">Pickup</text>

  <text x="502" y="316" fill="#5b4a3a" font-size="15" font-family="Segoe UI, Arial">11:02 • создана корзина</text>
  <text x="718" y="316" fill="#5b4a3a" font-size="15" font-family="Segoe UI, Arial">11:40 • скан на станции Washing</text>
  <text x="948" y="316" fill="#5b4a3a" font-size="15" font-family="Segoe UI, Arial">12:14 • скан на станции QC</text>
  <text x="1166" y="316" fill="#5b4a3a" font-size="15" font-family="Segoe UI, Arial">ожидается</text>

  <rect x="476" y="488" width="932" height="380" rx="14" fill="#ffffff" stroke="#e8d9c6"/>
  <text x="502" y="528" fill="#2f2217" font-size="22" font-weight="700" font-family="Segoe UI, Arial">История событий (audit log)</text>

  <rect x="502" y="548" width="880" height="58" rx="8" fill="#fdf7ef" stroke="#e8d9c6"/>
  <text x="522" y="584" fill="#5b4a3a" font-size="15" font-family="Segoe UI, Arial">12:14 • scan.accepted • B1001-2 • переход Washing -> QC • оператор Kadek</text>

  <rect x="502" y="616" width="880" height="58" rx="8" fill="#fdf7ef" stroke="#e8d9c6"/>
  <text x="522" y="652" fill="#5b4a3a" font-size="15" font-family="Segoe UI, Arial">11:40 • scan.accepted • B1001-2 • переход Sorting -> Washing • оператор Putu</text>

  <rect x="502" y="684" width="880" height="58" rx="8" fill="#fff2ee" stroke="#efcfc5"/>
  <text x="522" y="720" fill="#7f3d27" font-size="15" font-family="Segoe UI, Arial">11:35 • scan.rejected • попытка перехода напрямую в Pickup • правило заблокировало</text>

  <rect x="502" y="752" width="880" height="90" rx="8" fill="#f4f8ff" stroke="#d0ddf0"/>
  <text x="522" y="786" fill="#3e556d" font-size="15" font-family="Segoe UI, Arial">Вывод: путь корзины прозрачен, каждое действие имеет timestamp и оператора.</text>
  <text x="522" y="814" fill="#3e556d" font-size="15" font-family="Segoe UI, Arial">Это основа для контроля качества и последующей аналитики SLA.</text>
</svg>
