<svg width="1440" height="900" viewBox="0 0 1440 900" xmlns="http://www.w3.org/2000/svg">
  <defs>
    <linearGradient id="bg2" x1="0" y1="0" x2="1" y2="1">
      <stop offset="0%" stop-color="#f7fbf5"/>
      <stop offset="100%" stop-color="#edf6ec"/>
    </linearGradient>
  </defs>
  <rect width="1440" height="900" fill="url(#bg2)"/>
  <rect x="0" y="0" width="1440" height="76" fill="#214d3d"/>
  <text x="36" y="48" fill="#ffffff" font-size="26" font-family="Segoe UI, Arial">Sorting • Создание корзин и печать QR</text>

  <rect x="32" y="104" width="430" height="764" rx="14" fill="#ffffff" stroke="#d5e4d9"/>
  <text x="56" y="142" fill="#1b2f27" font-size="22" font-weight="700" font-family="Segoe UI, Arial">Заказ #1001</text>
  <text x="56" y="174" fill="#4f6358" font-size="16" font-family="Segoe UI, Arial">Клиент: Maria S. • 12.4 кг • Тип: Vanish</text>
  <text x="56" y="208" fill="#4f6358" font-size="16" font-family="Segoe UI, Arial">Статус: Не отсортировано</text>

  <rect x="56" y="236" width="382" height="70" rx="10" fill="#f3f8f4" stroke="#d5e4d9"/>
  <text x="74" y="278" fill="#1b2f27" font-size="16" font-family="Segoe UI, Arial">Комментарий приёмки: "есть пятно на рубашке"</text>

  <text x="56" y="340" fill="#1b2f27" font-size="18" font-weight="700" font-family="Segoe UI, Arial">Категории корзин</text>

  <rect x="56" y="360" width="382" height="78" rx="10" fill="#ffffff" stroke="#d5e4d9"/>
  <text x="76" y="390" fill="#1b2f27" font-size="16" font-family="Segoe UI, Arial">White</text>
  <text x="76" y="418" fill="#4f6358" font-size="14" font-family="Segoe UI, Arial">Количество вещей: 8</text>
  <rect x="318" y="376" width="104" height="44" rx="8" fill="#eef5ff" stroke="#c9dbf2"/>
  <text x="334" y="404" fill="#214d7a" font-size="16" font-family="Segoe UI, Arial">Авто</text>

  <rect x="56" y="448" width="382" height="78" rx="10" fill="#ffffff" stroke="#d5e4d9"/>
  <text x="76" y="478" fill="#1b2f27" font-size="16" font-family="Segoe UI, Arial">Color</text>
  <text x="76" y="506" fill="#4f6358" font-size="14" font-family="Segoe UI, Arial">Количество вещей: 11</text>
  <rect x="318" y="464" width="104" height="44" rx="8" fill="#eef5ff" stroke="#c9dbf2"/>
  <text x="334" y="492" fill="#214d7a" font-size="16" font-family="Segoe UI, Arial">Авто</text>

  <rect x="56" y="536" width="382" height="78" rx="10" fill="#ffffff" stroke="#d5e4d9"/>
  <text x="76" y="566" fill="#1b2f27" font-size="16" font-family="Segoe UI, Arial">Hand Wash</text>
  <text x="76" y="594" fill="#4f6358" font-size="14" font-family="Segoe UI, Arial">Количество вещей: 3</text>
  <rect x="318" y="552" width="104" height="44" rx="8" fill="#fff3ed" stroke="#efcfbd"/>
  <text x="336" y="580" fill="#9b4f2b" font-size="16" font-family="Segoe UI, Arial">Ручная</text>

  <rect x="56" y="636" width="382" height="56" rx="10" fill="#214d3d"/>
  <text x="108" y="671" fill="#ffffff" font-size="20" font-weight="700" font-family="Segoe UI, Arial">Создать корзины + Печать QR</text>
  <text x="56" y="726" fill="#4f6358" font-size="14" font-family="Segoe UI, Arial">После нажатия: создаются B1001-1, B1001-2, B1001-3</text>

  <rect x="486" y="104" width="922" height="764" rx="14" fill="#ffffff" stroke="#d5e4d9"/>
  <text x="514" y="142" fill="#1b2f27" font-size="22" font-weight="700" font-family="Segoe UI, Arial">Предпросмотр ярлыков QR</text>
  <text x="514" y="174" fill="#4f6358" font-size="15" font-family="Segoe UI, Arial">Каждая корзина получает уникальный трек-код и отдельный QR</text>

  <rect x="514" y="204" width="280" height="300" rx="12" fill="#fbfdff" stroke="#d5e4d9"/>
  <rect x="548" y="246" width="210" height="210" fill="#111111"/>
  <rect x="574" y="272" width="158" height="158" fill="#ffffff"/>
  <rect x="594" y="292" width="118" height="118" fill="#111111"/>
  <text x="548" y="472" fill="#1b2f27" font-size="16" font-family="Segoe UI, Arial">B1001-1 • White</text>

  <rect x="822" y="204" width="280" height="300" rx="12" fill="#fbfdff" stroke="#d5e4d9"/>
  <rect x="856" y="246" width="210" height="210" fill="#111111"/>
  <rect x="882" y="272" width="158" height="158" fill="#ffffff"/>
  <rect x="902" y="292" width="118" height="118" fill="#111111"/>
  <text x="856" y="472" fill="#1b2f27" font-size="16" font-family="Segoe UI, Arial">B1001-2 • Color</text>

  <rect x="1130" y="204" width="250" height="300" rx="12" fill="#fbfdff" stroke="#d5e4d9"/>
  <rect x="1154" y="246" width="202" height="202" fill="#111111"/>
  <rect x="1178" y="270" width="154" height="154" fill="#ffffff"/>
  <rect x="1198" y="290" width="114" height="114" fill="#111111"/>
  <text x="1154" y="472" fill="#1b2f27" font-size="16" font-family="Segoe UI, Arial">B1001-3 • Hand Wash</text>

  <rect x="514" y="536" width="866" height="120" rx="12" fill="#f6fbf7" stroke="#d5e4d9"/>
  <text x="538" y="574" fill="#1b2f27" font-size="18" font-weight="700" font-family="Segoe UI, Arial">Правило этапа</text>
  <text x="538" y="606" fill="#4f6358" font-size="16" font-family="Segoe UI, Arial">Статус меняется только после скана QR на нужной станции, ручной перевод запрещён.</text>
  <text x="538" y="634" fill="#4f6358" font-size="16" font-family="Segoe UI, Arial">Это защищает от ошибок и фиктивных перемещений.</text>

  <rect x="514" y="684" width="280" height="56" rx="10" fill="#214d3d"/>
  <text x="568" y="718" fill="#ffffff" font-size="20" font-family="Segoe UI, Arial">Печать сейчас</text>
  <rect x="814" y="684" width="280" height="56" rx="10" fill="#e7eef4" stroke="#c7d7e5"/>
  <text x="856" y="718" fill="#214d3d" font-size="20" font-family="Segoe UI, Arial">Сохранить шаблон</text>
</svg>
